{
  "accessors": [
    {
      "bufferView": 2,
      "componentType": 5126,
      "count": 65532,
      "max": [
        166.71849060058594,
        110.57881164550781,
        147.54270935058594
      ],
      "min": [
        -67.489349365234375,
        -121.58261108398438,
        -110.945068359375
      ],
      "type": "VEC3"
    },
    {
      "bufferView": 2,
      "byteOffset": 786384,
      "componentType": 5126,
      "count": 65532,
      "max": [
        0.99977403879165649,
        0.99926126003265381,
        0.99599415063858032
      ],
      "min": [
        -0.99984675645828247,
        -0.98502081632614136,
        -0.99850767850875854
      ],
      "type": "VEC3"
    },
    {
      "bufferView": 1,
      "componentType": 5126,
      "count": 65532,
      "max": [
        0.89642512798309326,
        0.99248868227005005
      ],
      "min": [
        0.0075112893246114254,
        0.11366730928421021
      ],
      "type": "VEC2"
    },
    {
      "bufferView": 0,
      "componentType": 5125,
      "count": 373263,
      "max": [
        65531
      ],
      "min": [
        0
      ],
      "type": "SCALAR"
    },
    {
      "bufferView": 2,
      "byteOffset": 1572768,
      "componentType": 5126,
      "count": 65532,
      "max": [
        166.77900695800781,
        107.85218811035156,
        147.74378967285156
      ],
      "min": [
        -82.830337524414062,
        -122.50263977050781,
        -113.34083557128906
      ],
      "type": "VEC3"
    },
    {
      "bufferView": 2,
      "byteOffset": 2359152,
      "componentType": 5126,
      "count": 65532,
      "max": [
        0.99999910593032837,
        0.99996978044509888,
        0.99998366832733154
      ],
      "min": [
        -0.99989616870880127,
        -1,
        -0.99970352649688721
      ],
      "type": "VEC3"
    },
    {
      "bufferView": 1,
      "byteOffset": 524256,
      "componentType": 5126,
      "count": 65532,
      "max": [
        0.98782122135162354,
        0.73710477352142334
      ],
      "min": [
        0.022533867508172989,
        0.0028114914894104004
      ],
      "type": "VEC2"
    },
    {
      "bufferView": 0,
      "byteOffset": 1493052,
      "componentType": 5125,
      "count": 354885,
      "max": [
        65531
      ],
      "min": [
        0
      ],
      "type": "SCALAR"
    },
    {
      "bufferView": 2,
      "byteOffset": 3145536,
      "componentType": 5126,
      "count": 2576,
      "max": [
        -48.640655517578125,
        -22.248245239257812,
        100.09825134277344
      ],
      "min": [
        -81.965843200683594,
        -115.49052429199219,
        44.386848449707031
      ],
      "type": "VEC3"
    },
    {
      "bufferView": 2,
      "byteOffset": 3176448,
      "componentType": 5126,
      "count": 2576,
      "max": [
        0.999805748462677,
        0.99991726875305176,
        0.99704968929290771
      ],
      "min": [
        -0.9999854564666748,
        -0.98945730924606323,
        -0.99998015165328979
      ],
      "type": "VEC3"
    },
    {
      "bufferView": 1,
      "byteOffset": 1048512,
      "componentType": 5126,
      "count": 2576,
      "max": [
        0.36058568954467773,
        0.84977424144744873
      ],
      "min": [
        0.0075112893246114254,
        0.07758331298828125
      ],
      "type": "VEC2"
    },
    {
      "bufferView": 0,
      "byteOffset": 2912592,
      "componentType": 5125,
      "count": 10998,
      "max": [
        2575
      ],
      "min": [
        0
      ],
      "type": "SCALAR"
    }
  ],
  "asset": {
    "extras": {
      "author": "The Cable Center (https://sketchfab.com/thecablecenter)",
      "license": "CC0-1.0 (http://creativecommons.org/publicdomain/zero/1.0/)",
      "source": "https://sketchfab.com/3d-models/mr-t-chia-box-1fdbaff8813f4b15a2206b0609ae7bcb",
      "title": "Mr T Chia Box"
    },
    "generator": "Sketchfab-7.80.0",
    "version": "2.0"
  },
  "bufferViews": [
    {
      "buffer": 0,
      "byteLength": 2956584,
      "byteOffset": 0,
      "name": "floatBufferViews",
      "target": 34963
    },
    {
      "buffer": 0,
      "byteLength": 1069120,
      "byteOffset": 2956584,
      "byteStride": 8,
      "name": "floatBufferViews",
      "target": 34962
    },
    {
      "buffer": 0,
      "byteLength": 3207360,
      "byteOffset": 4025704,
      "byteStride": 12,
      "name": "floatBufferViews",
      "target": 34962
    }
  ],
  "buffers": [
    {
      "byteLength": 7233064,
      "uri": "scene.bin"
    }
  ],
  "images": [
    {
      "uri": "textures/material_0_baseColor.png"
    }
  ],
  "materials": [
    {
      "doubleSided": true,
      "emissiveFactor": [
        0,
        0,
        0
      ],
      "name": "material_0",
      "pbrMetallicRoughness": {
        "baseColorFactor": [
          1,
          1,
          1,
          1
        ],
        "baseColorTexture": {
          "index": 0,
          "texCoord": 0
        },
        "metallicFactor": 0,
        "roughnessFactor": 0.59999999999999998
      }
    }
  ],
  "meshes": [
    {
      "primitives": [
        {
          "attributes": {
            "NORMAL": 1,
            "POSITION": 0,
            "TEXCOORD_0": 2
          },
          "indices": 3,
          "material": 0,
          "mode": 4
        }
      ]
    },
    {
      "primitives": [
        {
          "attributes": {
            "NORMAL": 5,
            "POSITION": 4,
            "TEXCOORD_0": 6
          },
          "indices": 7,
          "material": 0,
          "mode": 4
        }
      ]
    },
    {
      "primitives": [
        {
          "attributes": {
            "NORMAL": 9,
            "POSITION": 8,
            "TEXCOORD_0": 10
          },
          "indices": 11,
          "material": 0,
          "mode": 4
        }
      ]
    }
  ],
  "nodes": [
    {
      "children": [
        1
      ],
      "name": "RootNode (gltf orientation matrix)",
      "rotation": [
        -0.70710678118654746,
        -0,
        -0,
        0.70710678118654757
      ]
    },
    {
      "children": [
        2
      ],
      "matrix": [
        1,
        2.4651903288156619e-32,
        2.2204460492503131e-16,
        0,
        2.4651903288156619e-32,
        1,
        -2.2204460492503131e-16,
        0,
        -2.2204460492503131e-16,
        2.2204460492503131e-16,
        1,
        0,
        7.1054273576010019e-15,
        -3.5527136788005009e-15,
        -1.0658141036401503e-14,
        1
      ],
      "name": "RootNode (model correction matrix)"
    },
    {
      "children": [
        3,
        4,
        5
      ],
      "name": "mrt_box.obj.cleaner.gles"
    },
    {
      "mesh": 0,
      "name": ""
    },
    {
      "mesh": 1,
      "name": ""
    },
    {
      "mesh": 2,
      "name": ""
    }
  ],
  "samplers": [
    {
      "magFilter": 9729,
      "minFilter": 9987,
      "wrapS": 10497,
      "wrapT": 10497
    }
  ],
  "scene": 0,
  "scenes": [
    {
      "name": "OSG_Scene",
      "nodes": [
        0
      ]
    }
  ],
  "textures": [
    {
      "sampler": 0,
      "source": 0
    }
  ]
}

